# xmcd
#
# Track frame offsets:
#	150
#	20163
#	38118
#	50496
#	54359
#	72295
#	86764
#	98096
#	126148
#	156131
#	172523
#	219800
#	226469
#	232046
#	264138
#	278728
#	284525
#	298109
#	309737
#
# Disc length: 4194 seconds
#
# Revision: 0
# Processed by: cddbd v1.5.2PL0 Copyright (c) Steve Scherf et al.
# Submitted via: EZCDAudioConverter 7.0.0.1
#
DISCID=0a106013
DTITLE=Various Artist - Latvian Fairy Tales (classics), Vol. 2 (Latviesu Taut
DTITLE=as PASAKAS 2)
DYEAR=2006
DGENRE=Kids
TTITLE0=Tēva gudrība
TTITLE1=Kā ganiņš izglāba ķēniņa meitu
TTITLE2=Zaķis piemāna vilku māti
TTITLE3=Ezītis
TTITLE4=Gāganu kari
TTITLE5=Kā zaķis pieveica lauvu un viņa sievu
TTITLE6=Kā zaķis mācīja suni svilpot
TTITLE7=Lapsa par pīļu ganu
TTITLE8=Suns par kurpnieku
TTITLE9=Kumeļa perēšana
TTITLE10=Rokpeļņa bērni
TTITLE11=Putni uzvar zvērus
TTITLE12=Sīkstais saimnieks
TTITLE13=Pieci brāļi stiprinieki
TTITLE14=Meitiņa kaķīte
TTITLE15=Sala derības ar zaķi
TTITLE16=Sliņķis un runcis
TTITLE17=Dziesma - Circenītis
TTITLE18=Dziesma - Pasaciņa
EXTD=
EXTT0=
EXTT1=
EXTT2=
EXTT3=
EXTT4=
EXTT5=
EXTT6=
EXTT7=
EXTT8=
EXTT9=
EXTT10=
EXTT11=
EXTT12=
EXTT13=
EXTT14=
EXTT15=
EXTT16=
EXTT17=
EXTT18=
PLAYORDER=
